<svg width="70" height="70" viewBox="0 0 70 70" fill="none" xmlns="http://www.w3.org/2000/svg">
<path d="M30.0254 54.9391H32.2129V66.9785H30.0254V54.9391ZM60.0953 17.8063L63.0799 16.0043L60.0967 14.2051L62.2842 11.498L58.8662 10.8309L59.9941 7.5332L56.5502 8.08008L56.4873 4.59512L53.4412 6.27539L52.1861 3.02148L49.9029 5.65195L47.6088 3.02148L46.3482 6.27539L43.2994 4.59238L43.2365 8.07734L39.7926 7.53047L40.9205 10.8281L37.5025 11.4953L39.69 14.2023L36.7055 16.0043L39.69 17.8008H44.2578L48.2623 28.2379L49.9029 26.3566L52.1916 28.9871L53.4453 25.7387L56.4941 27.4217L56.557 23.9367L60.001 24.4836L58.8689 21.1777L62.2869 20.5105L60.0953 17.8063ZM25.2936 24.1377H12.8521L17.0904 35.1914H29.5318L25.2936 24.1377ZM40.0934 24.1377H27.652L31.882 35.1914H44.3234L40.0934 24.1377ZM30.4123 37.4568H17.9709L22.201 48.5105H34.6424L30.4123 37.4568ZM45.2121 37.4568H32.7707L37.0008 48.5105H49.4422L45.2121 37.4568ZM55.3143 52.7516H19.4639L6.91992 19.9883H42.7539L55.3143 52.7516ZM52.6223 50.7008L46.701 35.2693L41.6041 21.9502H9.67754L20.6793 50.698H52.6277L52.6223 50.7008Z" fill="#FBD343"/>
</svg>
