<svg width="70" height="70" viewBox="0 0 70 70" fill="none" xmlns="http://www.w3.org/2000/svg">
<path d="M47.5127 7.29102H23.3831C20.0464 7.29102 18.3781 7.29102 17.1385 8.1456C15.896 9.0031 15.406 10.4906 14.426 13.4685L7.69432 33.8852C5.98807 39.0652 5.13349 41.6552 6.53932 43.4314C7.94516 45.2077 10.8472 45.2077 16.6543 45.2077H40.7839C44.1206 45.2077 45.786 45.2077 47.0285 44.3531C48.271 43.4956 48.761 42.0081 49.741 39.0302L56.4727 18.6135C58.1789 13.4335 59.0335 10.8435 57.6277 9.06727C56.2218 7.29102 53.3197 7.29102 47.5127 7.29102Z" stroke="#FBD343" stroke-width="1.5" stroke-linecap="round" stroke-linejoin="round"/>
<path d="M64.1667 17.5L55.2942 44.3713C53.9992 48.2883 53.3517 50.2483 51.7154 51.3713C50.0821 52.5 47.88 52.5 43.4817 52.5H11.6667M13.125 20.4167H55.4167M51.0417 32.0833H8.75M32.0833 53.9583V62.7083M32.0833 62.7083H37.9167M32.0833 62.7083H26.25" stroke="#FBD343" stroke-width="1.5" stroke-linecap="round" stroke-linejoin="round"/>
<path d="M45.2085 7.29102H30.6252L18.9585 45.2077H33.5418L45.2085 7.29102Z" stroke="#FBD343" stroke-width="1.5" stroke-linecap="round" stroke-linejoin="round"/>
</svg>
