<svg width="70" height="70" viewBox="0 0 70 70" fill="none" xmlns="http://www.w3.org/2000/svg">
<path d="M51.7914 34.3321H61.291V36.9688H51.7914V34.3321ZM51.7914 37.6834H61.291V40.32H51.7914V37.6834ZM51.7914 40.9529H61.291V43.5896H51.7914V40.9529ZM51.7914 44.2196H61.291V46.8563H51.7914V44.2196ZM51.8147 48.2738C51.8147 48.517 51.8627 48.7578 51.9557 48.9825C52.0488 49.2072 52.1852 49.4114 52.3572 49.5834C52.5292 49.7554 52.7334 49.8918 52.9581 49.9849C53.1828 50.078 53.4236 50.1259 53.6668 50.1259H59.5002C59.9911 50.1251 60.4618 49.9297 60.8089 49.5825C61.1561 49.2354 61.3515 48.7647 61.3523 48.2738V47.4892H51.8147V48.2738ZM61.4018 20.2475H61.046V19.2646C61.0452 19.1465 60.998 19.0334 60.9145 18.9499C60.8309 18.8664 60.7179 18.8191 60.5998 18.8184H52.4827C52.3645 18.8191 52.2515 18.8664 52.168 18.9499C52.0844 19.0334 52.0372 19.1465 52.0364 19.2646V20.2475H51.771C51.408 20.2471 51.0485 20.3183 50.7131 20.4569C50.3777 20.5956 50.0728 20.799 49.816 21.0555C49.5592 21.312 49.3555 21.6166 49.2165 21.9519C49.0775 22.2872 49.006 22.6466 49.006 23.0096V49.7059C45.3952 44.3304 44.9227 44.59 44.5814 44.765C44.2402 44.94 44.316 45.3075 44.3947 45.9842C44.5088 46.8611 44.5488 47.746 44.5143 48.6296C44.4414 50.2017 44.3831 51.5609 43.5752 52.1004C43.183 52.2685 42.7608 52.3552 42.3341 52.3552C41.9075 52.3552 41.4852 52.2685 41.0931 52.1004C40.5134 51.9089 39.9715 51.6178 39.4918 51.24L39.5852 51.3013L47.6673 35.8896L47.4456 35.2509L38.4535 52.4592H6.06683L6.40808 53.2059H38.5935L39.2847 51.8904C39.8044 52.2087 40.362 52.4605 40.9443 52.64C41.5586 52.8628 42.2108 52.9619 42.8635 52.9317C43.2221 52.9036 43.568 52.7863 43.8698 52.5904C44.9052 51.8963 44.9723 50.4088 45.0364 48.685C45.0749 47.7722 45.0339 46.8578 44.9139 45.9521C44.885 45.7432 44.8675 45.5329 44.8614 45.3221C46.5106 47.0035 47.9386 48.8883 49.111 50.9309C49.272 51.5098 49.618 52.0201 50.0962 52.384C50.5744 52.7479 51.1585 52.9453 51.7593 52.9463H61.3843C61.7502 52.949 62.1131 52.879 62.4517 52.7403C62.7903 52.6016 63.098 52.397 63.3569 52.1384C63.6158 51.8798 63.8207 51.5723 63.9597 51.2338C64.0988 50.8953 64.1692 50.5326 64.1668 50.1667V23.0096C64.1668 22.6466 64.0953 22.2872 63.9563 21.9519C63.8173 21.6166 63.6136 21.312 63.3568 21.0555C63.1 20.799 62.7952 20.5956 62.4597 20.4569C62.1243 20.3183 61.7648 20.2471 61.4018 20.2475ZM61.8918 48.6004C61.8918 49.162 61.6687 49.7006 61.2716 50.0977C60.8745 50.4949 60.3359 50.7179 59.7743 50.7179H53.3081C52.7465 50.7179 52.2079 50.4949 51.8108 50.0977C51.4137 49.7006 51.1906 49.162 51.1906 48.6004V24.2667C51.1906 23.7051 51.4137 23.1665 51.8108 22.7694C52.2079 22.3723 52.7465 22.1492 53.3081 22.1492H59.7743C60.3359 22.1492 60.8745 22.3723 61.2716 22.7694C61.6687 23.1665 61.8918 23.7051 61.8918 24.2667V48.6004ZM32.5297 27.2884C32.5731 27.3044 32.621 27.3027 32.6631 27.2836C32.7052 27.2645 32.738 27.2295 32.7543 27.1863L33.9648 23.8613C33.9726 23.8396 33.9762 23.8167 33.9752 23.7936C33.9742 23.7706 33.9686 23.748 33.9589 23.7272C33.9491 23.7063 33.9353 23.6876 33.9183 23.6721C33.9013 23.6565 33.8814 23.6445 33.8597 23.6367C33.8164 23.6216 33.7689 23.6242 33.7274 23.6439C33.686 23.6635 33.6539 23.6986 33.6381 23.7417L32.4277 27.0667C32.4125 27.1097 32.4146 27.1569 32.4337 27.1983C32.4528 27.2397 32.4872 27.272 32.5297 27.2884ZM34.9652 28.5367L37.2373 25.8271C37.2523 25.8095 37.2637 25.7892 37.2708 25.7672C37.278 25.7451 37.2807 25.7219 37.2788 25.6989C37.2769 25.6758 37.2704 25.6534 37.2598 25.6328C37.2492 25.6123 37.2346 25.5941 37.2168 25.5792C37.1811 25.55 37.1354 25.5361 37.0895 25.5405C37.0437 25.5449 37.0014 25.5672 36.9718 25.6025L34.6968 28.3121C34.6677 28.3478 34.6538 28.3935 34.6582 28.4394C34.6625 28.4853 34.6848 28.5276 34.7202 28.5571C34.7555 28.5866 34.801 28.601 34.8469 28.5972C34.8927 28.5933 34.9352 28.5716 34.9652 28.5367ZM36.3418 30.4967C36.365 30.5362 36.4027 30.565 36.4469 30.577C36.491 30.589 36.5381 30.5832 36.5781 30.5609L39.6435 28.7934C39.6833 28.7697 39.712 28.7312 39.7235 28.6864C39.735 28.6416 39.7282 28.5941 39.7047 28.5542C39.6816 28.5147 39.6439 28.4859 39.5997 28.4739C39.5556 28.4619 39.5084 28.4677 39.4685 28.49L36.406 30.2575C36.3861 30.269 36.3686 30.2843 36.3546 30.3025C36.3406 30.3208 36.3303 30.3416 36.3243 30.3638C36.3184 30.386 36.3169 30.4092 36.3199 30.432C36.3229 30.4548 36.3303 30.4768 36.3418 30.4967ZM37.2022 32.8738C37.2101 32.9194 37.2357 32.96 37.2734 32.9868C37.3111 33.0135 37.3579 33.0243 37.4035 33.0167L40.9035 32.4013C40.9485 32.3928 40.9884 32.3669 41.0146 32.3293C41.0408 32.2916 41.0512 32.2452 41.0435 32.2C41.0397 32.1766 41.0311 32.1541 41.0184 32.1341C41.0056 32.114 40.9889 32.0968 40.9692 32.0834C40.9496 32.07 40.9274 32.0608 40.9041 32.0563C40.8807 32.0518 40.8567 32.052 40.8335 32.0571L37.3335 32.6667C37.2889 32.6771 37.2501 32.7047 37.2256 32.7434C37.201 32.7821 37.1926 32.8289 37.2022 32.8738ZM19.1772 32.375L22.6597 32.9904C22.7043 32.9961 22.7493 32.9845 22.7855 32.9578C22.8217 32.9312 22.8463 32.8917 22.8542 32.8475C22.862 32.8033 22.8526 32.7577 22.8278 32.7203C22.803 32.6828 22.7648 32.6563 22.721 32.6463L19.221 32.0338C19.1971 32.0259 19.1718 32.0233 19.1468 32.0262C19.1218 32.029 19.0977 32.0372 19.0762 32.0502C19.0546 32.0632 19.0361 32.0806 19.0219 32.1014C19.0078 32.1222 18.9982 32.1458 18.994 32.1706C18.9897 32.1954 18.9909 32.2208 18.9974 32.2451C19.0038 32.2694 19.0155 32.292 19.0315 32.3114C19.0475 32.3308 19.0675 32.3466 19.0901 32.3575C19.1128 32.3685 19.1375 32.3745 19.1627 32.375H19.1772ZM23.491 30.5404C23.5109 30.5519 23.5329 30.5594 23.5557 30.5624C23.5785 30.5654 23.6017 30.5639 23.6239 30.5579C23.6461 30.552 23.6669 30.5417 23.6851 30.5277C23.7034 30.5137 23.7187 30.4962 23.7302 30.4763C23.7525 30.4363 23.7583 30.3892 23.7463 30.3451C23.7343 30.3009 23.7055 30.2632 23.666 30.24L20.6035 28.4696C20.5846 28.451 20.5618 28.4369 20.5367 28.4284C20.5116 28.42 20.4849 28.4173 20.4586 28.4206C20.4324 28.4239 20.4072 28.4332 20.385 28.4477C20.3628 28.4621 20.3442 28.4815 20.3306 28.5042C20.3169 28.5269 20.3086 28.5524 20.3063 28.5788C20.304 28.6052 20.3077 28.6318 20.3171 28.6565C20.3265 28.6813 20.3414 28.7036 20.3607 28.7217C20.38 28.7399 20.4032 28.7534 20.4285 28.7613L23.491 30.5404ZM25.1127 28.5192C25.1422 28.5546 25.1845 28.5768 25.2304 28.5812C25.2762 28.5856 25.322 28.5717 25.3577 28.5425C25.3756 28.5274 25.3903 28.5089 25.401 28.488C25.4116 28.467 25.4179 28.4442 25.4196 28.4208C25.4212 28.3974 25.4181 28.3739 25.4105 28.3517C25.4028 28.3296 25.3908 28.3091 25.3752 28.2917L23.1002 25.5821C23.0872 25.5604 23.0696 25.5419 23.0487 25.5276C23.0279 25.5134 23.0042 25.5039 22.9792 25.4996C22.9543 25.4954 22.9288 25.4967 22.9044 25.5033C22.88 25.5099 22.8574 25.5217 22.838 25.5379C22.8186 25.5541 22.8029 25.5743 22.7921 25.5971C22.7812 25.6199 22.7755 25.6448 22.7752 25.6701C22.7749 25.6954 22.78 25.7204 22.7903 25.7435C22.8006 25.7665 22.8158 25.7871 22.8347 25.8038L25.1127 28.5192ZM27.551 27.2825C27.5942 27.2662 27.6292 27.2334 27.6483 27.1913C27.6675 27.1492 27.6692 27.1013 27.6531 27.0579L26.4456 23.7329C26.4297 23.6892 26.3972 23.6536 26.355 23.6339C26.3129 23.6142 26.2647 23.6121 26.221 23.6279C26.1773 23.6438 26.1417 23.6764 26.122 23.7185C26.1023 23.7606 26.1001 23.8088 26.116 23.8525L27.3264 27.1775C27.3342 27.1992 27.3463 27.2191 27.3618 27.2361C27.3773 27.2531 27.396 27.2669 27.4169 27.2767C27.4378 27.2864 27.4604 27.2919 27.4834 27.293C27.5064 27.294 27.5294 27.2904 27.551 27.2825ZM30.0418 26.8334C30.0877 26.8334 30.1318 26.8153 30.1646 26.7831C30.1973 26.7509 30.2161 26.7072 30.2168 26.6613V23.135C30.2168 23.112 30.2123 23.0893 30.2035 23.0681C30.1947 23.0468 30.1818 23.0275 30.1656 23.0113C30.1493 22.995 30.13 22.9821 30.1088 22.9733C30.0876 22.9646 30.0648 22.96 30.0418 22.96C30.0189 22.96 29.9961 22.9646 29.9749 22.9733C29.9536 22.9821 29.9343 22.995 29.9181 23.0113C29.9018 23.0275 29.8889 23.0468 29.8802 23.0681C29.8714 23.0893 29.8668 23.112 29.8668 23.135V26.6729C29.8705 26.7168 29.8905 26.7576 29.923 26.7874C29.9554 26.8171 29.9978 26.8335 30.0418 26.8334ZM19.8743 34.055C19.8562 34.0539 19.8381 34.057 19.8214 34.0641C19.8047 34.0711 19.7898 34.082 19.7781 34.0959C19.7638 34.1079 19.7527 34.1232 19.7456 34.1405C19.7385 34.1577 19.7356 34.1764 19.7372 34.195C19.7372 34.213 19.7408 34.2309 19.7477 34.2475C19.7546 34.2641 19.7647 34.2792 19.7774 34.292C19.7901 34.3047 19.8052 34.3148 19.8219 34.3217C19.8385 34.3286 19.8563 34.3321 19.8743 34.3321H40.1831C40.2201 34.3316 40.2556 34.317 40.2822 34.2913C40.2961 34.2795 40.307 34.2647 40.3141 34.248C40.3211 34.2313 40.3242 34.2131 40.3231 34.195C40.3235 34.1765 40.3201 34.1581 40.3132 34.141C40.3063 34.1238 40.296 34.1082 40.283 34.0951C40.2699 34.0821 40.2543 34.0718 40.2371 34.0649C40.22 34.058 40.2016 34.0546 40.1831 34.055H36.4352C36.3427 32.4185 35.6275 30.8793 34.4362 29.7534C33.2449 28.6275 31.6679 28.0002 30.0287 28.0002C28.3895 28.0002 26.8125 28.6275 25.6212 29.7534C24.4299 30.8793 23.7147 32.4185 23.6222 34.055H19.8743ZM47.3085 34.7842H14.6389L5.8335 52.0625H38.2727L47.3085 34.7842ZM45.4331 36.0704L41.8631 42.8984H41.2185L44.7827 36.0704H45.4331ZM44.4531 36.0704L40.8889 42.8984H40.1948L43.7502 36.0704H44.4531ZM43.4264 36.0704L39.8652 42.8984H39.2206L42.7789 36.0704H43.4264ZM42.4493 36.0704L38.891 42.8984H38.2085L41.7668 36.0704H42.4493ZM41.4402 36.0704L37.8848 42.8984H37.2373L40.7927 36.0704H41.4402ZM40.4631 36.0704L36.9077 42.8984H36.2135L39.766 36.0704H40.4631ZM39.4364 36.0704L35.8752 42.8984H35.2306L38.7918 36.0704H39.4364ZM37.6864 36.0704L34.1397 42.8984H33.4952L37.0418 36.0704H37.6864ZM36.7093 36.0704L33.1656 42.8984H32.4714L36.0122 36.0704H36.7093ZM35.6827 36.0704L32.1418 42.8984H31.5002L35.041 36.0704H35.6827ZM34.7056 36.0704L31.1677 42.8984H30.4881L34.0231 36.0704H34.7056ZM33.6935 36.0704L30.1585 42.8984H29.5139L33.046 36.0704H33.6935ZM32.7164 36.0704L29.1843 42.8984H28.4902L32.0193 36.0704H32.7164ZM31.6897 36.0704L28.1606 42.8984H27.516L31.0422 36.0704H31.6897ZM29.8493 36.0704L26.3231 42.8984H25.6668L29.1872 36.0704H29.8493ZM28.8693 36.0704L25.3489 42.8984H24.6547L28.1722 36.0704H28.8693ZM27.8427 36.0704L24.3252 42.8984H23.6777L27.1952 36.0704H27.8427ZM26.8656 36.0704L23.3656 42.8984H22.6714L26.186 36.0704H26.8656ZM25.8564 36.0704L22.3564 42.8984H21.6972L25.1972 36.0704H25.8564ZM24.8793 36.0704L21.3793 42.8984H20.6735L24.1735 36.0704H24.8793ZM23.8527 36.0704L20.3527 42.8984H19.6993L23.1993 36.0704H23.8527ZM22.0093 36.0704L18.5093 42.8984H17.8618L21.3618 36.0704H22.0093ZM21.0322 36.0704L17.5322 42.8984H16.8381L20.3381 36.0704H21.0322ZM20.0056 36.0704L16.5056 42.8984H15.8639L19.3639 36.0704H20.0056ZM19.0285 36.0704L15.5285 42.8984H14.8547L18.3547 36.0704H19.0285ZM18.0164 36.0704L14.5164 42.8984H13.8806L17.3806 36.0704H18.0164ZM17.0393 36.0704L13.5393 42.8984H12.8568L16.3335 36.0704H17.0393ZM15.3652 36.0704H16.0127L12.5418 42.8984H11.8827L15.3652 36.0704ZM7.8285 50.8434L11.3139 44.0154H11.9585L8.47308 50.8434H7.8285ZM8.79975 50.8434L12.2997 44.0154H12.9939L9.49391 50.8434H8.79975ZM9.82058 50.8434L13.3206 44.0154H13.9652L10.4652 50.8434H9.82058ZM10.7918 50.8434L14.2918 44.0154H14.9627L11.4627 50.8434H10.7918ZM11.7981 50.8434L15.2981 44.0154H15.9427L12.4427 50.8434H11.7981ZM12.7693 50.8434L16.2693 44.0154H16.9635L13.4635 50.8434H12.7693ZM13.7872 50.8434L17.2872 44.0154H17.9318L14.4318 50.8434H13.7872ZM15.6218 50.8434L19.1218 44.0154H19.7693L16.2693 50.8434H15.6218ZM16.5931 50.8434L20.0931 44.0154H20.796L17.296 50.8434H16.5931ZM17.611 50.8434L21.111 44.0154H21.7585L18.2585 50.8434H17.611ZM18.5852 50.8434L22.0852 44.0154H22.7647L19.2502 50.8434H18.5852ZM19.5885 50.8434L23.106 44.0154H23.7506L20.2331 50.8434H19.5885ZM20.5597 50.8434L24.0802 44.0154H24.7743L21.251 50.8434H20.5597ZM21.5806 50.8434L25.101 44.0154H25.7485L22.2222 50.8434H21.5806ZM23.4122 50.8434L26.9385 44.0154H27.586L24.0539 50.8434H23.4122ZM24.3835 50.8434L27.9127 44.0154H28.6068L25.0835 50.8434H24.3835ZM25.4043 50.8434L28.9364 44.0154H29.581L26.046 50.8434H25.4043ZM26.3756 50.8434L29.9106 44.0154H30.5902L27.0522 50.8434H26.3756ZM27.3789 50.8434L30.9168 44.0154H31.5643L28.0235 50.8434H27.3789ZM28.3502 50.8434L31.891 44.0154H32.5852L29.0443 50.8434H28.3502ZM29.371 50.8434L32.9147 44.0154H33.5593L30.0156 50.8434H29.371ZM31.121 50.8434L34.6706 44.0154H35.2918L31.7423 50.8434H31.121ZM32.0922 50.8434L35.6447 44.0154H36.3389L32.7864 50.8434H32.0922ZM33.1131 50.8434L36.6685 44.0154H37.3131L33.746 50.8434H33.1131ZM34.0843 50.8434L37.6427 44.0154H38.3222L34.761 50.8434H34.0843ZM35.0877 50.8434L38.6489 44.0154H39.2964L35.7323 50.8434H35.0877ZM36.0589 50.8434L39.6231 44.0154H40.3172L36.7502 50.8434H36.0589ZM37.0798 50.8434L40.6468 44.0154H41.2914L37.7127 50.8434H37.0798Z" fill="#FBD343"/>
</svg>
