<svg width="70" height="70" viewBox="0 0 70 70" fill="none" xmlns="http://www.w3.org/2000/svg">
<path opacity="0.3" d="M12.9502 58.334H32.0835V52.5007H14.1169L12.9502 58.334ZM53.5502 40.834H37.9169V46.6673H54.7169L53.5502 40.834ZM37.9169 52.5007V58.334H57.0502L55.8835 52.5007H37.9169ZM15.2835 46.6673H32.0835V40.834H16.4502L15.2835 46.6673Z" fill="#FBD343"/>
<path d="M58.3335 35.0006H11.6668L5.8335 64.1673H64.1668L58.3335 35.0006ZM37.9168 40.834H53.5502L54.7168 46.6673H37.9168V40.834ZM32.0835 58.334H12.9502L14.1168 52.5006H32.0835V58.334ZM32.0835 46.6673H15.2835L16.4502 40.834H32.0835V46.6673ZM37.9168 58.334V52.5006H55.8835L57.0502 58.334H37.9168ZM32.0835 23.334H37.9168V32.084H32.0835V23.334ZM45.9785 21.0152L50.1056 16.8911L56.2918 23.0773L52.1677 27.2015L45.9785 21.0152ZM13.7231 23.0802L19.9093 16.8882L24.0335 21.0181L17.8502 27.2044L13.7231 23.0802ZM8.75016 5.83398H17.5002V11.6673H8.75016V5.83398ZM52.5002 5.83398H61.2502V11.6673H52.5002V5.83398ZM35.0002 20.4173C43.0502 20.4173 49.5835 13.884 49.5835 5.83398H43.7502C43.7502 10.6465 39.8127 14.584 35.0002 14.584C30.1877 14.584 26.2502 10.6465 26.2502 5.83398H20.4168C20.4168 13.884 26.9502 20.4173 35.0002 20.4173Z" fill="#FBD343"/>
<path opacity="0.3" d="M43.75 5.83398C43.75 10.6757 39.8417 14.584 35 14.584C30.1583 14.584 26.25 10.6757 26.25 5.83398H43.75Z" fill="#FBD343"/>
</svg>
